<svg xmlns="http://www.w3.org/2000/svg" viewBox="0 0 983 983"><g id="Layer_2" data-name="Layer 2"><g id="Layer_2-2" data-name="Layer 2"><path d="M491.5,0C220.05,0,0,220.05,0,491.5S220.05,983,491.5,983,983,763,983,491.5,763,0,491.5,0ZM109.31,252.09c76.87-124,202.42-196.83,328.12-204.3C317.67,69.54,202.86,145.13,129.21,263.94,54.42,384.57,38.4,523.39,74.26,641.52,22.78,524.86,31.4,377.75,109.31,252.09ZM142,670.91a.37.37,0,0,1-.05-.11A391.23,391.23,0,0,1,99,492C99,275,275,99,492,99a392.71,392.71,0,0,1,113.08,16.52C767,164.08,885,314.26,885,492c0,217-176,393-393,393C339.39,885,207.09,798,142,670.91Zm546.64,228c107-60.69,191.7-171.35,223.1-309.77,31.89-140.55,1.84-279-70.87-380.36C928,303.5,967.78,447.43,934.56,593.84,901.79,738.31,806,849.91,688.64,898.87Z"/><path d="M594,537a91.06,91.06,0,0,1,9.24,57.27,65.31,65.31,0,0,1-3.54,13.43,64.87,64.87,0,0,1-2.33,7.22,123.26,123.26,0,0,0-11-28.2,135.82,135.82,0,0,0-13.24-20.09A107.55,107.55,0,0,0,560.56,553a118.72,118.72,0,0,0-9.09-8.53c-2.62-2.23-5.41-4.45-8.31-6.65-1.17-.88-2.35-1.77-3.54-2.64-9.6-7-20.09-13.71-29.39-19.27-15.26-9.16-27.38-15.36-27.38-15.36-34.76-15.79-77.09-44.22-77.09-44.22-30.18-22.65-35.07-53.9-34.92-72.38v-.62a81.4,81.4,0,0,1,1.43-14.84c.38-1.58.78-3.11,1.22-4.61A82.29,82.29,0,0,1,384,341.12a166.1,166.1,0,0,0,10.35,34.29c.22.41.44.82.64,1.21a123.16,123.16,0,0,0,13.08,19.28,151.86,151.86,0,0,0,17.21,17.78c5.28,4.65,8.88,7.19,8.88,7.19.67.62,1.43,1.27,2.26,2,1.37,1.14,3,2.34,4.73,3.61l.55.38c.72.5,1.48,1,2.24,1.54,8.88,6.05,20.95,13.05,31.54,18.92l.77.42c1.06.6,2.11,1.17,3.14,1.74,11.17,6.12,19.86,10.55,19.86,10.55,14.53,4.42,54.34,32.19,54.34,32.19C582,510.49,594,537,594,537Z"/><path d="M605.08,115.52A389.5,389.5,0,0,0,486,97C270.61,97,96,271.61,96,487A388.12,388.12,0,0,0,142,670.8a.37.37,0,0,0,.05.11C207.71,793.57,337.11,877,486,877c215.39,0,390-174.61,390-390C876,313.14,762.23,165.85,605.08,115.52Zm56.55,479.32s-9.94,25-23.49,41.68a53.15,53.15,0,0,1-11.25,10.77s-.67.72-2,2a152.19,152.19,0,0,1-25.27,19.5c-1,14.27-3.18,29.29-7.48,36.48,0,0-15.81,39.82-34.76,52.44,0,0-43.19,47.27-115.73,47,0,0-26.43,4.8-97.83-26.16,0,0-15.81-7.58-20.23-1.89,0,0-4.81,2.93-8.1,28.32H301.57V630.66h19.52s8.84,57.82,18.33,75.49c0,0,14.52,33.46,36.65,48.6,0,0,10.72,12,50.54,19.58,0,0,38.55,5.67,67-10.1,0,0,28.44-14.53,36.65-46.08,0,0,5-11.72,4.77-29.23v-.63a100.65,100.65,0,0,0-18.29-54A120.56,120.56,0,0,0,495,610.65c-.89-.76-1.82-1.5-2.77-2.24-2.54-2-5.24-3.93-8.12-5.77,0,0-16.24-11.33-31.75-20.67-8.79-5.29-17.34-9.94-22.6-11.53,0,0-42.45-21.73-60.35-35.21a55,55,0,0,1-4.72-3.93l-.83-.6a142.21,142.21,0,0,1-16.22-14.29,131.09,131.09,0,0,1-22.76-30.56,156.29,156.29,0,0,1-5.62-15.28c-2.82-9-5.77-20.83-6.38-32.69,0,0-.05-3.37,0-8.46V427.8c.05-14,.53-38.39,3.19-45.48,0,0,6.33-27.76,17.69-42.92a121.47,121.47,0,0,1,9.48-12.58,151,151,0,0,1,13.07-13.59,119.58,119.58,0,0,1,19.8-14.84,73.1,73.1,0,0,1,6.74-4c.45-9.65,1.25-18.63,2.71-22.48,0,0,6.31-27.78,17.69-42.92,0,0,15.79-25.25,42.33-41,0,0,18.95-13.26,47.38-17.05,0,0,27.17-5.69,60.67,4.42,0,0,30.95,10.1,34.11,11.37,0,0,23.38,10.1,29.71,0L622,169h13.08V311.76h-10S614.37,249.29,583,226.19c0,0-39.55-44-98.3-21.85,0,0-32.87,11.38-43,53.71,0,0-9.45,42.27,20.18,75.63a89.62,89.62,0,0,0,13.3,12.2s7.92,5.31,19.69,12.63c2.1,1.3,4.3,2.64,6.63,4.06,14.79,9,33.71,19.79,50.77,27.54,0,0,14.68,7.51,32.06,18.18,6,3.68,12.34,7.76,18.49,12l.15.11c.18.12.37.24.56.38,4.79,3.35,9.49,6.81,13.83,10.32a129.07,129.07,0,0,1,12.64,11.43s37.05,32,40,82.67C670.05,525.22,671.11,579,661.63,594.84Z"/></g></g></svg>